<mxfile host="app.diagrams.net" modified="2022-04-21T02:36:53.046Z" agent="5.0 (Windows NT 10.0; Win64; x64) AppleWebKit/537.36 (KHTML, like Gecko) Chrome/100.0.4896.75 Safari/537.36" etag="9fPScTVKN6wZ98l3T4zv" version="17.4.5" type="github">
  <diagram id="wFE0QG_FPsp0jaGvCLVb" name="Page-1">
    <mxGraphModel dx="1278" dy="551" grid="1" gridSize="10" guides="1" tooltips="1" connect="1" arrows="1" fold="1" page="1" pageScale="1" pageWidth="850" pageHeight="1100" math="0" shadow="0">
      <root>
        <mxCell id="0" />
        <mxCell id="1" parent="0" />
        <mxCell id="k9zxwndr40Z3x8ybEwwm-1" value="" style="rounded=0;whiteSpace=wrap;html=1;" vertex="1" parent="1">
          <mxGeometry x="40" y="70" width="780" height="130" as="geometry" />
        </mxCell>
        <mxCell id="k9zxwndr40Z3x8ybEwwm-3" value="" style="rounded=0;whiteSpace=wrap;html=1;" vertex="1" parent="1">
          <mxGeometry x="40" y="220" width="780" height="130" as="geometry" />
        </mxCell>
        <mxCell id="k9zxwndr40Z3x8ybEwwm-4" value="" style="rounded=0;whiteSpace=wrap;html=1;" vertex="1" parent="1">
          <mxGeometry x="40" y="370" width="780" height="130" as="geometry" />
        </mxCell>
        <mxCell id="k9zxwndr40Z3x8ybEwwm-5" value="" style="rounded=0;whiteSpace=wrap;html=1;" vertex="1" parent="1">
          <mxGeometry x="35" y="530" width="780" height="130" as="geometry" />
        </mxCell>
        <mxCell id="k9zxwndr40Z3x8ybEwwm-6" value="" style="rounded=0;whiteSpace=wrap;html=1;" vertex="1" parent="1">
          <mxGeometry x="35" y="680" width="780" height="130" as="geometry" />
        </mxCell>
        <mxCell id="k9zxwndr40Z3x8ybEwwm-7" value="&lt;font style=&quot;font-size: 24px&quot; face=&quot;Georgia&quot;&gt;某云商城架构图&lt;/font&gt;" style="text;html=1;resizable=0;autosize=1;align=center;verticalAlign=middle;points=[];fillColor=none;strokeColor=none;rounded=0;" vertex="1" parent="1">
          <mxGeometry x="320" y="30" width="180" height="20" as="geometry" />
        </mxCell>
      </root>
    </mxGraphModel>
  </diagram>
</mxfile>
